<?xml version="1.0" encoding="utf-8"?>
<!-- Generator: Adobe Illustrator 18.0.0, SVG Export Plug-In . SVG Version: 6.00 Build 0)  -->
<!DOCTYPE svg PUBLIC "-//W3C//DTD SVG 1.1//EN" "http://www.w3.org/Graphics/SVG/1.1/DTD/svg11.dtd">
<svg version="1.1" id="Layer_1" xmlns="http://www.w3.org/2000/svg" xmlns:xlink="http://www.w3.org/1999/xlink" x="0px" y="0px"
	 viewBox="0 0 120.9 34.7" enable-background="new 0 0 120.9 34.7" xml:space="preserve">
<g>
	<path fill="#010101" d="M120.9,31.2c0,1.9-1.6,3.5-3.5,3.5H3.5c-1.9,0-3.5-1.6-3.5-3.5V3.5C0,1.6,1.6,0,3.5,0h114
		c1.9,0,3.5,1.6,3.5,3.5L120.9,31.2L120.9,31.2z"/>
	<g>
		<g>
			<path fill="#FFFFFF" d="M26.6,17.2c0-2.9,2.4-4.4,2.5-4.4c-1.4-2-3.5-2.3-4.2-2.3c-1.8-0.2-3.5,1.1-4.4,1.1c-0.9,0-2.3-1.1-3.8-1
				c-1.9,0-3.8,1.2-4.8,2.9c-2.1,3.6-0.5,8.8,1.4,11.7c1,1.4,2.1,3,3.6,2.9c1.5-0.1,2-0.9,3.8-0.9c1.8,0,2.3,0.9,3.8,0.9
				c1.6,0,2.6-1.4,3.5-2.8c1.1-1.6,1.6-3.2,1.6-3.3C29.6,21.8,26.6,20.7,26.6,17.2z"/>
			<path fill="#FFFFFF" d="M23.7,8.6c0.8-1,1.3-2.3,1.2-3.7c-1.1,0.1-2.6,0.8-3.4,1.8c-0.7,0.9-1.4,2.3-1.2,3.6
				C21.5,10.3,22.8,9.5,23.7,8.6z"/>
		</g>
	</g>
	<g>
		<path fill="#FFFFFF" d="M47.9,27.8h-2.1l-1.1-3.6h-3.9l-1.1,3.6h-2l3.9-12.1H44L47.9,27.8z M44.4,22.8l-1-3.2
			c-0.1-0.3-0.3-1.1-0.6-2.3h0c-0.1,0.5-0.3,1.3-0.6,2.3l-1,3.2H44.4z"/>
		<path fill="#FFFFFF" d="M57.9,23.3c0,1.5-0.4,2.7-1.2,3.5C56,27.6,55.1,28,54.1,28c-1.1,0-2-0.4-2.5-1.2h0v4.6h-1.9V22
			c0-0.9,0-1.9-0.1-2.9h1.7l0.1,1.4h0c0.6-1,1.6-1.6,2.9-1.6c1,0,1.9,0.4,2.6,1.2C57.6,20.9,57.9,22,57.9,23.3z M56,23.4
			c0-0.8-0.2-1.5-0.6-2.1c-0.4-0.6-1-0.9-1.7-0.9c-0.5,0-0.9,0.2-1.3,0.5c-0.4,0.3-0.6,0.7-0.8,1.2c-0.1,0.2-0.1,0.4-0.1,0.6v1.5
			c0,0.6,0.2,1.2,0.6,1.6c0.4,0.4,0.9,0.7,1.5,0.7c0.7,0,1.3-0.3,1.7-0.8C55.7,25.1,56,24.3,56,23.4z"/>
		<path fill="#FFFFFF" d="M68,23.3c0,1.5-0.4,2.7-1.2,3.5C66,27.6,65.1,28,64.1,28c-1.1,0-2-0.4-2.5-1.2h0v4.6h-1.9V22
			c0-0.9,0-1.9-0.1-2.9h1.7l0.1,1.4h0c0.6-1,1.6-1.6,2.9-1.6c1,0,1.9,0.4,2.6,1.2C67.6,20.9,68,22,68,23.3z M66,23.4
			c0-0.8-0.2-1.5-0.6-2.1c-0.4-0.6-1-0.9-1.7-0.9c-0.5,0-0.9,0.2-1.3,0.5c-0.4,0.3-0.6,0.7-0.8,1.2c-0.1,0.2-0.1,0.4-0.1,0.6v1.5
			c0,0.6,0.2,1.2,0.6,1.6c0.4,0.4,0.9,0.7,1.5,0.7c0.7,0,1.3-0.3,1.7-0.8C65.8,25.1,66,24.3,66,23.4z"/>
		<path fill="#FFFFFF" d="M79.2,24.4c0,1-0.4,1.9-1.1,2.5c-0.8,0.7-1.9,1.1-3.3,1.1c-1.3,0-2.3-0.3-3.1-0.8l0.4-1.6
			c0.8,0.5,1.8,0.8,2.8,0.8c0.7,0,1.3-0.2,1.7-0.5c0.4-0.3,0.6-0.8,0.6-1.3c0-0.5-0.2-0.9-0.5-1.2c-0.3-0.3-0.9-0.6-1.7-0.9
			c-2.1-0.8-3.2-1.9-3.2-3.5c0-1,0.4-1.8,1.1-2.4c0.7-0.6,1.7-1,3-1c1.1,0,2,0.2,2.7,0.6l-0.5,1.6c-0.7-0.4-1.5-0.6-2.3-0.6
			c-0.7,0-1.2,0.2-1.6,0.5c-0.3,0.3-0.5,0.7-0.5,1.1c0,0.5,0.2,0.9,0.6,1.2c0.3,0.3,0.9,0.6,1.8,0.9c1,0.4,1.8,0.9,2.3,1.5
			C78.9,22.9,79.2,23.6,79.2,24.4z"/>
		<path fill="#FFFFFF" d="M85.6,20.5h-2.1v4.2c0,1.1,0.4,1.6,1.1,1.6c0.3,0,0.6,0,0.9-0.1l0.1,1.5C85.1,27.9,84.6,28,84,28
			c-0.8,0-1.4-0.2-1.8-0.7c-0.4-0.5-0.6-1.2-0.6-2.3v-4.4h-1.3v-1.5h1.3v-1.6l1.9-0.6v2.2h2.1V20.5z"/>
		<path fill="#FFFFFF" d="M95.2,23.4c0,1.3-0.4,2.4-1.1,3.3c-0.8,0.9-1.9,1.3-3.2,1.3c-1.3,0-2.3-0.4-3.1-1.3
			c-0.8-0.8-1.1-1.9-1.1-3.2c0-1.4,0.4-2.5,1.2-3.3c0.8-0.9,1.8-1.3,3.2-1.3c1.3,0,2.3,0.4,3.1,1.3C94.8,21,95.2,22.1,95.2,23.4z
			 M93.2,23.4c0-0.8-0.2-1.5-0.5-2.1c-0.4-0.7-1-1-1.7-1c-0.8,0-1.4,0.3-1.8,1c-0.3,0.6-0.5,1.3-0.5,2.1c0,0.8,0.2,1.5,0.5,2.1
			c0.4,0.7,1,1,1.8,1c0.7,0,1.3-0.4,1.7-1.1C93,24.9,93.2,24.2,93.2,23.4z"/>
		<path fill="#FFFFFF" d="M101.5,20.8c-0.2,0-0.4-0.1-0.6-0.1c-0.7,0-1.2,0.3-1.6,0.8c-0.3,0.5-0.5,1-0.5,1.7v4.6h-1.9l0-6
			c0-1,0-1.9-0.1-2.7h1.7l0.1,1.7h0.1c0.2-0.6,0.5-1,1-1.4c0.4-0.3,0.9-0.5,1.4-0.5c0.2,0,0.3,0,0.5,0V20.8z"/>
		<path fill="#FFFFFF" d="M110.1,23c0,0.3,0,0.6-0.1,0.9h-5.8c0,0.9,0.3,1.5,0.8,2c0.5,0.4,1.1,0.6,1.9,0.6c0.9,0,1.6-0.1,2.4-0.4
			l0.3,1.3c-0.8,0.4-1.8,0.5-2.9,0.5c-1.4,0-2.4-0.4-3.2-1.2c-0.8-0.8-1.2-1.9-1.2-3.2c0-1.3,0.4-2.4,1.1-3.3c0.8-0.9,1.8-1.4,3-1.4
			c1.3,0,2.2,0.5,2.9,1.4C109.9,21,110.1,21.9,110.1,23z M108.3,22.5c0-0.6-0.1-1.1-0.4-1.5c-0.3-0.5-0.8-0.8-1.5-0.8
			c-0.6,0-1.1,0.3-1.5,0.8c-0.3,0.4-0.5,0.9-0.6,1.5H108.3z"/>
	</g>
	<g>
		<g>
			<path fill="#FFFFFF" d="M43.7,8.3c0,1.1-0.3,1.9-1,2.4c-0.6,0.5-1.4,0.7-2.5,0.7c-0.5,0-1,0-1.4-0.1V5.5c0.5-0.1,1.1-0.1,1.6-0.1
				c1,0,1.8,0.2,2.4,0.7C43.4,6.6,43.7,7.3,43.7,8.3z M42.7,8.3c0-0.7-0.2-1.2-0.6-1.6c-0.4-0.4-0.9-0.6-1.6-0.6
				c-0.3,0-0.6,0-0.8,0.1v4.4c0.1,0,0.3,0,0.6,0c0.7,0,1.3-0.2,1.7-0.6C42.5,9.7,42.7,9.1,42.7,8.3z"/>
			<path fill="#FFFFFF" d="M49.1,9.2c0,0.7-0.2,1.2-0.6,1.6c-0.4,0.4-0.9,0.7-1.6,0.7c-0.6,0-1.1-0.2-1.5-0.6
				c-0.4-0.4-0.6-0.9-0.6-1.6c0-0.7,0.2-1.2,0.6-1.6C45.8,7.2,46.4,7,47,7c0.6,0,1.1,0.2,1.5,0.6C48.9,8.1,49.1,8.6,49.1,9.2z
				 M48.1,9.2c0-0.4-0.1-0.7-0.3-1c-0.2-0.3-0.5-0.5-0.9-0.5c-0.4,0-0.7,0.2-0.9,0.5c-0.2,0.3-0.3,0.6-0.3,1c0,0.4,0.1,0.7,0.3,1
				c0.2,0.3,0.5,0.5,0.9,0.5c0.4,0,0.6-0.2,0.9-0.5C48,10,48.1,9.6,48.1,9.2z"/>
			<path fill="#FFFFFF" d="M56.2,7.1l-1.3,4.3H54l-0.6-1.9c-0.1-0.5-0.3-0.9-0.3-1.4h0c-0.1,0.5-0.2,0.9-0.3,1.4l-0.6,1.9h-0.9
				L50,7.1h1l0.5,2c0.1,0.5,0.2,0.9,0.3,1.4h0c0.1-0.4,0.2-0.8,0.4-1.4l0.6-2h0.8l0.6,2c0.1,0.5,0.3,1,0.3,1.4h0
				c0.1-0.4,0.2-0.9,0.3-1.4l0.5-2H56.2z"/>
			<path fill="#FFFFFF" d="M61.1,11.4h-1V8.9c0-0.8-0.3-1.1-0.9-1.1c-0.3,0-0.5,0.1-0.7,0.3c-0.2,0.2-0.3,0.5-0.3,0.7v2.5h-1V8.3
				c0-0.4,0-0.8,0-1.2h0.8l0,0.7h0c0.1-0.2,0.3-0.4,0.5-0.5C59,7.1,59.3,7,59.6,7c0.4,0,0.7,0.1,1,0.4c0.3,0.3,0.5,0.8,0.5,1.4V11.4
				z"/>
			<path fill="#FFFFFF" d="M63.8,11.4h-1V5.1h1V11.4z"/>
			<path fill="#FFFFFF" d="M69.4,9.2c0,0.7-0.2,1.2-0.6,1.6c-0.4,0.4-0.9,0.7-1.6,0.7c-0.6,0-1.1-0.2-1.5-0.6
				c-0.4-0.4-0.6-0.9-0.6-1.6c0-0.7,0.2-1.2,0.6-1.6C66.1,7.2,66.7,7,67.3,7c0.6,0,1.1,0.2,1.5,0.6C69.2,8.1,69.4,8.6,69.4,9.2z
				 M68.4,9.2c0-0.4-0.1-0.7-0.3-1c-0.2-0.3-0.5-0.5-0.9-0.5c-0.4,0-0.7,0.2-0.9,0.5c-0.2,0.3-0.3,0.6-0.3,1c0,0.4,0.1,0.7,0.3,1
				c0.2,0.3,0.5,0.5,0.9,0.5c0.4,0,0.6-0.2,0.9-0.5C68.3,10,68.4,9.6,68.4,9.2z"/>
			<path fill="#FFFFFF" d="M74,11.4h-0.9L73,10.9h0c-0.3,0.4-0.7,0.6-1.3,0.6c-0.4,0-0.7-0.1-1-0.4c-0.2-0.2-0.3-0.5-0.3-0.9
				c0-0.5,0.2-0.9,0.7-1.2c0.4-0.3,1.1-0.4,1.8-0.4V8.5c0-0.6-0.3-0.8-0.9-0.8c-0.4,0-0.8,0.1-1.1,0.3l-0.2-0.6
				C71.2,7.1,71.7,7,72.2,7c1.1,0,1.7,0.6,1.7,1.8v1.6C73.9,10.8,73.9,11.1,74,11.4z M73,9.9V9.3c-1.1,0-1.6,0.3-1.6,0.9
				c0,0.2,0.1,0.4,0.2,0.5c0.1,0.1,0.3,0.2,0.5,0.2c0.2,0,0.4-0.1,0.6-0.2c0.2-0.1,0.3-0.3,0.3-0.5C73,10,73,10,73,9.9z"/>
			<path fill="#FFFFFF" d="M79.4,11.4h-0.8l0-0.7h0c-0.3,0.5-0.7,0.8-1.4,0.8c-0.5,0-0.9-0.2-1.3-0.6c-0.3-0.4-0.5-0.9-0.5-1.6
				c0-0.7,0.2-1.3,0.6-1.7C76.2,7.2,76.6,7,77.2,7c0.6,0,1,0.2,1.2,0.6h0V5.1h1v5.1C79.3,10.7,79.4,11,79.4,11.4z M78.4,9.6V8.9
				c0-0.1,0-0.2,0-0.3C78.3,8.3,78.2,8.2,78,8c-0.2-0.2-0.4-0.2-0.6-0.2c-0.4,0-0.6,0.1-0.8,0.4c-0.2,0.3-0.3,0.6-0.3,1.1
				c0,0.4,0.1,0.8,0.3,1c0.2,0.3,0.5,0.4,0.8,0.4c0.3,0,0.6-0.1,0.8-0.4C78.3,10.2,78.4,9.9,78.4,9.6z"/>
			<path fill="#FFFFFF" d="M87.5,9.2c0,0.7-0.2,1.2-0.6,1.6c-0.4,0.4-0.9,0.7-1.6,0.7c-0.6,0-1.1-0.2-1.5-0.6
				c-0.4-0.4-0.6-0.9-0.6-1.6c0-0.7,0.2-1.2,0.6-1.6C84.3,7.2,84.8,7,85.5,7c0.6,0,1.1,0.2,1.5,0.6C87.3,8.1,87.5,8.6,87.5,9.2z
				 M86.5,9.2c0-0.4-0.1-0.7-0.3-1c-0.2-0.3-0.5-0.5-0.9-0.5c-0.4,0-0.7,0.2-0.9,0.5c-0.2,0.3-0.3,0.6-0.3,1c0,0.4,0.1,0.7,0.3,1
				c0.2,0.3,0.5,0.5,0.9,0.5c0.4,0,0.6-0.2,0.9-0.5C86.4,10,86.5,9.6,86.5,9.2z"/>
			<path fill="#FFFFFF" d="M92.6,11.4h-1V8.9c0-0.8-0.3-1.1-0.9-1.1c-0.3,0-0.5,0.1-0.7,0.3c-0.2,0.2-0.3,0.5-0.3,0.7v2.5h-1V8.3
				c0-0.4,0-0.8,0-1.2h0.8l0,0.7h0c0.1-0.2,0.3-0.4,0.5-0.5C90.5,7.1,90.8,7,91.2,7c0.4,0,0.7,0.1,1,0.4c0.3,0.3,0.5,0.8,0.5,1.4
				V11.4z"/>
			<path fill="#FFFFFF" d="M99,7.8h-1v2.1c0,0.5,0.2,0.8,0.6,0.8c0.2,0,0.3,0,0.4,0l0,0.7c-0.2,0.1-0.4,0.1-0.7,0.1
				c-0.4,0-0.7-0.1-0.9-0.3c-0.2-0.2-0.3-0.6-0.3-1.2V7.8h-0.6V7.1h0.6V6.3L98,6v1.1h1V7.8z"/>
			<path fill="#FFFFFF" d="M104.1,11.4h-1V9c0-0.8-0.3-1.2-0.9-1.2c-0.4,0-0.7,0.2-0.9,0.7c0,0.1,0,0.2,0,0.3v2.6h-1V5.1h1v2.6h0
				c0.3-0.5,0.7-0.7,1.3-0.7c0.4,0,0.7,0.1,1,0.4c0.3,0.3,0.5,0.8,0.5,1.4V11.4z"/>
			<path fill="#FFFFFF" d="M109.3,9c0,0.2,0,0.3,0,0.4h-2.9c0,0.4,0.1,0.7,0.4,1c0.2,0.2,0.6,0.3,0.9,0.3c0.4,0,0.8-0.1,1.2-0.2
				l0.1,0.7c-0.4,0.2-0.9,0.3-1.4,0.3c-0.7,0-1.2-0.2-1.6-0.6c-0.4-0.4-0.6-0.9-0.6-1.6c0-0.6,0.2-1.2,0.5-1.6
				c0.4-0.5,0.9-0.7,1.5-0.7c0.6,0,1.1,0.2,1.4,0.7C109.2,8.1,109.3,8.5,109.3,9z M108.4,8.8c0-0.3-0.1-0.5-0.2-0.7
				c-0.2-0.3-0.4-0.4-0.8-0.4c-0.3,0-0.6,0.1-0.8,0.4c-0.2,0.2-0.3,0.5-0.3,0.7H108.4z"/>
		</g>
	</g>
</g>
</svg>
