<?xml version="1.0" encoding="utf-8"?>
<!-- Generator: Adobe Illustrator 18.0.0, SVG Export Plug-In . SVG Version: 6.00 Build 0)  -->
<!DOCTYPE svg PUBLIC "-//W3C//DTD SVG 1.1//EN" "http://www.w3.org/Graphics/SVG/1.1/DTD/svg11.dtd">
<svg version="1.1" id="Layer_1" xmlns="http://www.w3.org/2000/svg" xmlns:xlink="http://www.w3.org/1999/xlink" x="0px" y="0px"
	 viewBox="0 0 137.5 123.7" enable-background="new 0 0 137.5 123.7" xml:space="preserve">
<g>
	<path fill-rule="evenodd" clip-rule="evenodd" fill="#474D64" d="M3.8,117.1H2.5L0,122.7h1.1l0.5-1.1h3l0.5,1.1h1.1L3.8,117.1
		L3.8,117.1z M3.1,118.3l1.1,2.4H2L3.1,118.3z"/>
	<path fill-rule="evenodd" clip-rule="evenodd" fill="#474D64" d="M10,123.7H11v-0.9h1.6c0.6-0.1,1-0.7,1-1.8l0,0h-0.9
		c0,0.6-0.2,0.9-0.5,0.9l0,0H8.8c-0.3,0-0.5-0.4-0.5-1.1l0,0v-1.7c0-0.7,0.2-1.1,0.5-1.1l0,0h3.4c0.3,0,0.4,0.3,0.5,0.9l0,0h0.9
		c0-1.1-0.4-1.7-1-1.8l0,0H8.4c-0.7,0.1-1,0.8-1,2v1.7c0,1.2,0.3,1.8,1,2l0,0H10V123.7z"/>
	<rect x="14.8" y="117.1" fill-rule="evenodd" clip-rule="evenodd" fill="#474D64" width="0.9" height="5.6"/>
	<path fill-rule="evenodd" clip-rule="evenodd" fill="#474D64" d="M19.5,123.7h0.9v-0.9h1.6c0.7-0.1,1-0.8,1-2l0,0v-1.7
		c0-1.2-0.3-1.8-1-2l0,0h-4.2c-0.7,0.1-1,0.8-1,2v1.7c0,1.2,0.3,1.8,1,2l0,0h1.6V123.7L19.5,123.7z M17.8,120.8v-1.7
		c0-0.7,0.2-1.1,0.5-1.1l0,0h3.4c0.3,0,0.5,0.4,0.5,1.1l0,0v1.7c0,0.7-0.2,1.1-0.5,1.1l0,0h-3.4C18,121.8,17.8,121.5,17.8,120.8
		L17.8,120.8z"/>
	<path fill-rule="evenodd" clip-rule="evenodd" fill="#474D64" d="M33.1,117.1h-4.2c-0.6,0.1-1,0.6-1,1.5l0,0l0,0.2h0
		c0.1,0.9,0.4,1.4,1,1.6l0,0h3.8c0.3,0,0.4,0.2,0.5,0.7l0,0c-0.1,0.5-0.2,0.8-0.5,0.8l0,0h-3.4c-0.3,0-0.4-0.3-0.5-0.9l0,0h-0.9
		c0,1.1,0.4,1.7,1,1.8l0,0h4.2c0.6-0.1,1-0.7,1-1.6l0,0l0-0.2c-0.1-0.9-0.4-1.3-1-1.5l0,0h-3.8c-0.3,0-0.4-0.2-0.5-0.7l0,0
		c0-0.5,0.2-0.8,0.5-0.8l0,0h3.4c0.3,0,0.4,0.3,0.5,0.9l0,0h0.9C34.1,117.9,33.7,117.3,33.1,117.1z"/>
	<path fill-rule="evenodd" clip-rule="evenodd" fill="#474D64" d="M40.5,117.1h-4.2c-0.6,0.1-1,0.7-1,1.8h0.9c0-0.6,0.2-0.9,0.5-0.9
		l0,0h3.4c0.3,0,0.5,0.4,0.5,1.1l0,0v0.4h-5.3v1.5l0,0c0,1,0.4,1.6,1,1.7l0,0h4.2c0.7-0.1,1-0.8,1-2l0,0v-1.7
		C41.5,117.9,41.1,117.3,40.5,117.1L40.5,117.1z M36.2,120.9v-0.5h4.3v0.4c0,0.7-0.2,1.1-0.5,1.1l0,0h-3.4
		C36.4,121.8,36.2,121.5,36.2,120.9L36.2,120.9z"/>
	<path fill-rule="evenodd" clip-rule="evenodd" fill="#474D64" d="M95.3,117.1h-4.2c-0.6,0.1-1,0.7-1,1.8h0.9c0-0.6,0.2-0.9,0.5-0.9
		l0,0h3.4c0.3,0,0.5,0.4,0.5,1.1l0,0v0.4h-5.3v1.5l0,0c0,1,0.4,1.6,1,1.7l0,0h4.2c0.7-0.1,1-0.8,1-2l0,0v-1.7
		C96.3,117.9,96,117.3,95.3,117.1L95.3,117.1z M91.1,120.9v-0.5h4.3v0.4c0,0.7-0.2,1.1-0.5,1.1l0,0h-3.4
		C91.3,121.8,91.1,121.5,91.1,120.9L91.1,120.9z"/>
	<path fill-rule="evenodd" clip-rule="evenodd" fill="#474D64" d="M128.7,120.8v-1.7c0-1.2-0.3-1.8-1-2h-4.2c-0.6,0.1-1,0.7-1,1.8
		l0,0h0.9c0-0.6,0.2-0.9,0.5-0.9l0,0h3.4c0.3,0,0.5,0.4,0.5,1.1l0,0v0.4h-5.3v1.5l0,0c0,1,0.4,1.6,1,1.7l0,0h4.2
		C128.4,122.6,128.7,122,128.7,120.8L128.7,120.8z M123.5,120.9v-0.5h4.3v0.4c0,0.7-0.2,1.1-0.5,1.1l0,0h-3.4
		C123.6,121.8,123.5,121.5,123.5,120.9L123.5,120.9z"/>
	<polygon fill-rule="evenodd" clip-rule="evenodd" fill="#474D64" points="48.8,117.1 47.9,117.1 47.9,119.5 43.6,119.5 43.6,117.1 
		42.7,117.1 42.7,122.7 43.6,122.7 43.6,120.4 47.9,120.4 47.9,122.7 48.8,122.7 	"/>
	<polygon fill-rule="evenodd" clip-rule="evenodd" fill="#474D64" points="57,117.1 55.5,117.1 53.5,121.6 51.5,117.1 50,117.1 
		50,122.7 51,122.7 51,118.5 52.9,122.7 54.1,122.7 56,118.5 56,122.7 57,122.7 	"/>
	<path fill-rule="evenodd" clip-rule="evenodd" fill="#474D64" d="M64,120.8v-1.7c0-1.2-0.3-1.8-1-2h-4.8v5.6H63
		C63.6,122.6,64,122,64,120.8L64,120.8z M59.1,118h3.5c0.3,0,0.5,0.4,0.5,1.1l0,0v1.7c0,0.7-0.2,1.1-0.5,1.1l0,0h-3.5V118z"/>
	<path fill-rule="evenodd" clip-rule="evenodd" fill="#474D64" d="M68.9,117.1h-1.3l-2.5,5.6h1.1l0.5-1.1h3l0.5,1.1h1.1L68.9,117.1
		L68.9,117.1z M68.3,118.3l1.1,2.4h-2.2L68.3,118.3z"/>
	<path fill-rule="evenodd" clip-rule="evenodd" fill="#474D64" d="M78,121.1L78,121.1c0-0.6-0.1-0.9-0.3-1.2l0,0
		c0.2-0.2,0.3-0.6,0.3-1.1v0c0-1-0.3-1.6-1-1.6h-4.4v5.6h0.9v-2.3h3.3c0.3,0,0.4,0.2,0.4,0.7l0,0v1.6H78L78,121.1L78,121.1z
		 M73.5,118h3.3c0.3,0,0.4,0.2,0.4,0.7l0,0c0,0.5-0.1,0.7-0.4,0.7l0,0h-3.3V118z"/>
	<path fill-rule="evenodd" clip-rule="evenodd" fill="#474D64" d="M88,117.1h-4.2c-0.7,0.1-1,0.8-1,2l0,0v1.7c0,1.2,0.3,1.8,1,2l0,0
		H88c0.6-0.1,1-0.7,1-1.8H88c0,0.6-0.2,0.9-0.5,0.9l0,0h-3.4c-0.3,0-0.5-0.4-0.5-1.1l0,0v-1.7c0-0.7,0.2-1.1,0.5-1.1l0,0h3.4
		c0.3,0,0.4,0.3,0.5,0.9l0,0H89C88.9,117.9,88.6,117.3,88,117.1z"/>
	<polygon fill-rule="evenodd" clip-rule="evenodd" fill="#474D64" points="104.5,122.7 104.5,117.1 103,117.1 101,121.6 99,117.1 
		97.5,117.1 97.5,122.7 98.5,122.7 98.5,118.5 100.4,122.7 101.6,122.7 103.5,118.5 103.5,122.7 	"/>
	<polygon fill-rule="evenodd" clip-rule="evenodd" fill="#474D64" points="114.1,117.1 112.9,117.1 110.9,119.3 108.8,117.1 
		107.7,117.1 110.3,120 110.4,120.1 110.4,122.7 111.3,122.7 111.3,120.1 111.4,120 	"/>
	<polygon fill-rule="evenodd" clip-rule="evenodd" fill="#474D64" points="121.4,117.1 120.3,117.1 118.2,119.3 116.2,117.1 
		115.1,117.1 117.7,120 117.8,120.1 117.8,122.7 118.7,122.7 118.7,120.1 118.8,120 	"/>
	<polygon fill-rule="evenodd" clip-rule="evenodd" fill="#474D64" points="135.3,118 135.3,117.1 129.9,117.1 129.9,118 132.2,118 
		132.2,122.7 133.1,122.7 133.1,118 	"/>
	<rect x="136.5" y="117.1" fill-rule="evenodd" clip-rule="evenodd" fill="#474D64" width="0.9" height="0.9"/>
	<rect x="136.5" y="119" fill-rule="evenodd" clip-rule="evenodd" fill="#474D64" width="0.9" height="3.8"/>
	<rect x="105.7" y="117.1" fill-rule="evenodd" clip-rule="evenodd" fill="#474D64" width="0.9" height="0.9"/>
	<rect x="105.7" y="119" fill-rule="evenodd" clip-rule="evenodd" fill="#474D64" width="0.9" height="3.8"/>
	<path fill-rule="evenodd" clip-rule="evenodd" fill="#474D64" d="M2.5,95.6h16.8v14.5c0,0.9-0.7,1.7-1.7,1.7l0,0h-1.4
		c-0.5,0-0.8-0.4-0.8-0.8l0,0V99.5h-11c-0.2,0-0.4,0.2-0.4,0.4l0,0v7.5c0,0.2,0.2,0.4,0.4,0.4l0,0h8.2c0.5,0,0.8,0.4,0.8,0.8l0,0
		v2.2c0,0.5-0.4,0.8-0.8,0.8l0,0h-10c-1.4,0-2.5-1.1-2.5-2.5V98.1C0,96.7,1.1,95.6,2.5,95.6z"/>
	<path fill-rule="evenodd" clip-rule="evenodd" fill="#474D64" d="M21.7,111.8L21.7,111.8h18c0.5,0,0.8-0.4,0.8-0.8l0,0v-2.2
		c0-0.5-0.4-0.8-0.8-0.8l0,0h-9.9l10.7-11.6c0.1-0.1,0.1-0.3,0.1-0.5l0,0c-0.1-0.2-0.2-0.2-0.4-0.2l0,0h-18c-0.5,0-0.8,0.4-0.8,0.8
		l0,0v2.2c0,0.5,0.4,0.8,0.8,0.8l0,0H32l-10.7,11.6c-0.1,0.1-0.1,0.3-0.1,0.5l0,0C21.4,111.7,21.5,111.8,21.7,111.8z"/>
	<path fill-rule="evenodd" clip-rule="evenodd" fill="#474D64" d="M45,111.8h14.3c1.4,0,2.5-1.1,2.5-2.5V98.1c0-1.4-1.1-2.5-2.5-2.5
		l0,0H45c-1.4,0-2.5,1.1-2.5,2.5l0,0v0.6c0,0.5,0.4,0.8,0.8,0.8l0,0h14.1c0.2,0,0.4,0.2,0.4,0.4l0,0v1.8H43.4
		c-0.5,0-0.8,0.4-0.8,0.8l0,0v6.7C42.5,110.7,43.7,111.8,45,111.8L45,111.8z M46.5,107.5v-1.6c0-0.1,0.1-0.3,0.2-0.3l0,0h11.2v1.8
		c0,0.2-0.2,0.4-0.4,0.4l0,0H46.9C46.6,107.9,46.5,107.7,46.5,107.5L46.5,107.5z"/>
	<path fill-rule="evenodd" clip-rule="evenodd" fill="#474D64" d="M64.7,111.8h2.2c0.5,0,0.8-0.4,0.8-0.8l0,0V99.5h14.5
		c0.5,0,0.8-0.4,0.8-0.8v-2.2c0-0.5-0.4-0.8-0.8-0.8l0,0H64.7c-0.5,0-0.8,0.4-0.8,0.8l0,0V111C63.8,111.4,64.2,111.8,64.7,111.8z"/>
	<path fill-rule="evenodd" clip-rule="evenodd" fill="#474D64" d="M115.4,95.6h-2.2c-0.5,0-0.8,0.4-0.8,0.8V111
		c0,0.5,0.4,0.8,0.8,0.8l0,0h2.2c0.5,0,0.8-0.4,0.8-0.8l0,0V96.4C116.2,96,115.8,95.6,115.4,95.6z"/>
	<path fill-rule="evenodd" clip-rule="evenodd" fill="#474D64" d="M85.9,111.8h2.2c0.5,0,0.8-0.4,0.8-0.8v-8.4
		c0-0.5-0.4-0.8-0.8-0.8l0,0h-2.2c-0.5,0-0.8,0.4-0.8,0.8l0,0v8.4C85.1,111.4,85.5,111.8,85.9,111.8z"/>
	<path fill-rule="evenodd" clip-rule="evenodd" fill="#474D64" d="M85.9,99.5h2.2c0.5,0,0.8-0.4,0.8-0.8v-2.2c0-0.5-0.4-0.8-0.8-0.8
		l0,0h-2.2c-0.5,0-0.8,0.4-0.8,0.8l0,0v2.2C85.1,99.1,85.5,99.5,85.9,99.5z"/>
	<path fill-rule="evenodd" clip-rule="evenodd" fill="#474D64" d="M99.5,115.7h2.2c0.5,0,0.8-0.4,0.8-0.8l0,0v-3.1h5.2
		c1.4,0,2.5-1.1,2.5-2.5v-5c0-1.4-1.1-2.5-2.5-2.5l0,0H95.3c-0.2,0-0.4-0.2-0.4-0.4l0,0v-1.4c0-0.2,0.2-0.4,0.4-0.4l0,0h14.1
		c0.5,0,0.8-0.4,0.8-0.8v-2.2c0-0.5-0.4-0.8-0.8-0.8l0,0H93.5c-1.4,0-2.5,1.1-2.5,2.5l0,0v5.1c0,1.4,1.1,2.5,2.5,2.5l0,0h12.4
		c0.2,0,0.4,0.2,0.4,0.4l0,0v1.4c0,0.2-0.2,0.4-0.4,0.4l0,0H91.8c-0.5,0-0.8,0.4-0.8,0.8l0,0v2.2c0,0.5,0.4,0.8,0.8,0.8l0,0h6.8v3.1
		C98.7,115.3,99.1,115.7,99.5,115.7z"/>
	<path fill-rule="evenodd" clip-rule="evenodd" fill="#474D64" d="M134.4,115.7h2.2c0.5,0,0.8-0.4,0.8-0.8l0,0V96.4
		c0-0.5-0.4-0.8-0.8-0.8l0,0h-15.9c-1.4,0-2.5,1.1-2.5,2.5v11.2c0,1.4,1.1,2.5,2.5,2.5l0,0h12.9v3.1
		C133.6,115.3,133.9,115.7,134.4,115.7L134.4,115.7z M122.1,107v-6.7c0-0.5,0.4-0.8,0.8-0.8l0,0h10.2c0.2,0,0.4,0.2,0.4,0.4l0,0v8
		h-10.6C122.5,107.9,122.1,107.5,122.1,107L122.1,107z"/>
	<path fill-rule="evenodd" clip-rule="evenodd" fill="#474D64" d="M76.4,70.5c-2.6,0.6-5.2,0.8-7.9,0.8l0,0c-2.7,0-5.3-0.3-7.9-0.8
		l0,0c-1.8-0.4-3.5,0.7-3.9,2.5l0,0c-0.4,1.8,0.7,3.5,2.5,3.9l0,0c3,0.7,6.1,1,9.3,1c3.1,0,6.2-0.3,9.3-1l0,0
		c1.8-0.4,2.9-2.1,2.5-3.9l0,0c-0.3-1.5-1.7-2.6-3.2-2.6l0,0C76.8,70.4,76.6,70.4,76.4,70.5L76.4,70.5z"/>
	<path fill-rule="evenodd" clip-rule="evenodd" fill="#474D64" d="M50.1,13.8c-5,4.4-8.3,10.5-9.1,17.1l0,0
		c-0.2,1.8,6.2,2.5,6.5,0.9l0,0c1.4-10.2,9.9-17.9,20.2-18.4l0,0l4.8-6.3c-1.3-0.2-2.6-0.3-3.9-0.3l0,0C61.7,6.9,55.2,9.3,50.1,13.8
		L50.1,13.8z"/>
	<path fill-rule="evenodd" clip-rule="evenodd" fill="#474D64" d="M76.2,14.8c7,2.7,12.3,9.1,13.3,16.9l0,0c0.2,1.6,6.7,0.9,6.5-0.9
		l0,0c-0.9-6.6-4.1-12.7-9.1-17.1l0,0c-2.3-2-4.9-3.7-7.7-4.8L76.2,14.8z"/>
	<path fill-rule="evenodd" clip-rule="evenodd" fill="#474D64" d="M68.4,85.6h0.1h0.1c2.4,0,4.9-0.2,7.3-0.5l0,0
		c1.8-0.3,3-1.9,2.8-3.7l0,0c-0.2-1.6-1.6-2.8-3.2-2.8l0,0c-0.2,0-0.3,0-0.5,0l0,0c-2.1,0.3-4.3,0.5-6.5,0.5l0,0
		c-2.2,0-4.3-0.2-6.5-0.5l0,0c-1.8-0.3-3.4,1-3.7,2.8l0,0c-0.3,1.8,1,3.4,2.8,3.7l0,0C63.5,85.4,65.9,85.6,68.4,85.6z"/>
	<polygon fill-rule="evenodd" clip-rule="evenodd" fill="#474D64" points="51.5,38.6 71.5,38.6 56.1,69.2 85.4,30.5 65.6,30.5 
		80.9,0 	"/>
	<path fill-rule="evenodd" clip-rule="evenodd" fill="#474D64" d="M41,38.3c0.9,6.6,4.1,12.7,9.1,17.1l0,0c2.3,2,4.9,3.7,7.7,4.8
		l0,0l2.9-5.9c-7-2.7-12.3-9.1-13.3-16.9l0,0c-0.1-0.7-1.1-1-2.3-1C43.2,36.4,40.9,37.2,41,38.3L41,38.3z"/>
	<path fill-rule="evenodd" clip-rule="evenodd" fill="#474D64" d="M68.4,62.3L68.4,62.3c6.8,0,13.3-2.5,18.4-6.9l0,0
		c5-4.4,8.3-10.5,9.1-17.1l0,0c0.1-1.1-2.2-1.8-4.2-1.8l0,0c-1.2,0-2.2,0.3-2.3,1l0,0c-1.4,10.2-10,18-20.2,18.4l0,0l-4.7,6.3
		C65.8,62.2,67.1,62.3,68.4,62.3z"/>
	<path fill-rule="evenodd" clip-rule="evenodd" fill="#474D64" d="M76.2,62.5c-2.5,0.7-5.1,1-7.7,1l0,0c-1.6,0-3.2-0.1-4.8-0.4l0,0
		l-4.3,5.7c3,0.8,6,1.2,9.1,1.2c3.2,0,6.4-0.4,9.4-1.3l0,0c1.7-0.5,2.8-2.3,2.3-4l0,0c-0.4-1.4-1.7-2.4-3.1-2.4l0,0
		C76.8,62.4,76.5,62.4,76.2,62.5L76.2,62.5z"/>
</g>
</svg>
