<?xml version="1.0" encoding="utf-8"?>
<!-- Generator: Adobe Illustrator 18.0.0, SVG Export Plug-In . SVG Version: 6.00 Build 0)  -->
<!DOCTYPE svg PUBLIC "-//W3C//DTD SVG 1.1//EN" "http://www.w3.org/Graphics/SVG/1.1/DTD/svg11.dtd">
<svg version="1.1" id="Layer_1" xmlns="http://www.w3.org/2000/svg" xmlns:xlink="http://www.w3.org/1999/xlink" x="0px" y="0px"
	 viewBox="0 0 202.2 51.8" enable-background="new 0 0 202.2 51.8" xml:space="preserve">
<g>
	<path fill-rule="evenodd" clip-rule="evenodd" fill="#2E3192" d="M48.5,36.4h-1.5l-2.9,6.4h1.3l0.6-1.3h3.4l0.6,1.3h1.3L48.5,36.4
		L48.5,36.4z M47.8,37.7l1.3,2.8h-2.5L47.8,37.7z"/>
	<path fill-rule="evenodd" clip-rule="evenodd" fill="#2E3192" d="M55.7,43.9h1.1v-1.1h1.8c0.7-0.1,1.1-0.9,1.2-2.1l0,0h-1.1
		c0,0.7-0.2,1.1-0.5,1.1l0,0h-3.9c-0.4,0-0.5-0.4-0.5-1.2l0,0v-1.9c0-0.8,0.2-1.2,0.5-1.2l0,0h3.9c0.3,0,0.5,0.4,0.5,1.1l0,0h1.1
		c0-1.3-0.4-2-1.2-2.1l0,0h-4.8c-0.8,0.2-1.2,0.9-1.2,2.2v1.9c0,1.3,0.4,2.1,1.2,2.2l0,0h1.8V43.9z"/>
	<rect x="61.2" y="36.4" fill-rule="evenodd" clip-rule="evenodd" fill="#2E3192" width="1.1" height="6.4"/>
	<path fill-rule="evenodd" clip-rule="evenodd" fill="#2E3192" d="M66.6,43.9h1.1v-1.1h1.8c0.8-0.2,1.2-0.9,1.2-2.2l0,0v-1.9
		c0-1.3-0.4-2.1-1.2-2.2l0,0h-4.8c-0.8,0.2-1.2,0.9-1.2,2.2v1.9c0,1.3,0.4,2.1,1.2,2.2l0,0h1.8V43.9L66.6,43.9z M64.7,40.6v-1.9
		c0-0.8,0.2-1.2,0.5-1.2l0,0h3.9c0.4,0,0.5,0.4,0.5,1.2l0,0v1.9c0,0.8-0.2,1.2-0.5,1.2l0,0h-3.9C64.9,41.8,64.7,41.4,64.7,40.6
		L64.7,40.6z"/>
	<path fill-rule="evenodd" clip-rule="evenodd" fill="#2E3192" d="M82.2,36.4h-4.8c-0.7,0.2-1.1,0.7-1.2,1.8l0,0l0,0.2h0
		c0.1,1,0.5,1.6,1.2,1.8l0,0h4.3c0.3,0,0.5,0.3,0.5,0.8l0,0c-0.1,0.6-0.2,0.9-0.5,0.9l0,0h-3.9c-0.3,0-0.5-0.4-0.5-1.1l0,0h-1.1
		c0,1.3,0.4,2,1.2,2.1l0,0h4.8c0.7-0.2,1.1-0.8,1.2-1.8l0,0l0-0.2c-0.1-1-0.5-1.5-1.2-1.7l0,0h-4.3c-0.3,0-0.5-0.3-0.5-0.8l0,0
		c0.1-0.6,0.2-0.9,0.5-0.9l0,0h3.9c0.3,0,0.5,0.4,0.5,1.1l0,0h1.1C83.3,37.3,82.9,36.5,82.2,36.4z"/>
	<path fill-rule="evenodd" clip-rule="evenodd" fill="#2E3192" d="M90.7,36.4h-4.8c-0.7,0.1-1.1,0.9-1.2,2.1h1.1
		c0-0.7,0.2-1.1,0.5-1.1l0,0h3.9c0.4,0,0.5,0.4,0.5,1.2l0,0v0.5h-6v1.7l0,0c0,1.2,0.4,1.8,1.2,2l0,0h4.8c0.8-0.2,1.2-0.9,1.2-2.2
		l0,0v-1.9C91.8,37.3,91.5,36.6,90.7,36.4L90.7,36.4z M85.8,40.7v-0.6h5v0.5c0,0.8-0.2,1.2-0.5,1.2l0,0h-3.9
		C86,41.8,85.8,41.4,85.8,40.7L85.8,40.7z"/>
	<path fill-rule="evenodd" clip-rule="evenodd" fill="#2E3192" d="M153.8,36.4H149c-0.7,0.1-1.1,0.9-1.2,2.1h1.1
		c0-0.7,0.2-1.1,0.5-1.1l0,0h3.9c0.4,0,0.5,0.4,0.5,1.2l0,0v0.5h-6v1.7l0,0c0,1.2,0.4,1.8,1.2,2l0,0h4.8c0.8-0.2,1.2-0.9,1.2-2.2
		l0,0v-1.9C154.9,37.3,154.5,36.6,153.8,36.4L153.8,36.4z M148.9,40.7v-0.6h5v0.5c0,0.8-0.2,1.2-0.5,1.2l0,0h-3.9
		C149.1,41.8,148.9,41.4,148.9,40.7L148.9,40.7z"/>
	<path fill-rule="evenodd" clip-rule="evenodd" fill="#2E3192" d="M192.1,40.6v-1.9c0-1.3-0.4-2.1-1.2-2.2h-4.8
		c-0.7,0.1-1.1,0.9-1.2,2.1l0,0h1.1c0-0.7,0.2-1.1,0.5-1.1l0,0h3.9c0.4,0,0.5,0.4,0.5,1.2l0,0v0.5h-6v1.7l0,0c0,1.2,0.4,1.8,1.2,2
		l0,0h4.8C191.8,42.7,192.1,41.9,192.1,40.6L192.1,40.6z M186.1,40.7v-0.6h5v0.5c0,0.8-0.2,1.2-0.5,1.2l0,0h-3.9
		C186.3,41.8,186.1,41.4,186.1,40.7L186.1,40.7z"/>
	<polygon fill-rule="evenodd" clip-rule="evenodd" fill="#2E3192" points="100.3,36.4 99.2,36.4 99.2,39.1 94.3,39.1 94.3,36.4 
		93.2,36.4 93.2,42.8 94.3,42.8 94.3,40.1 99.2,40.1 99.2,42.8 100.3,42.8 	"/>
	<polygon fill-rule="evenodd" clip-rule="evenodd" fill="#2E3192" points="109.7,36.4 108,36.4 105.7,41.5 103.4,36.4 101.7,36.4 
		101.7,42.8 102.8,42.8 102.8,37.9 105,42.8 106.4,42.8 108.6,37.9 108.6,42.8 109.7,42.8 	"/>
	<path fill-rule="evenodd" clip-rule="evenodd" fill="#2E3192" d="M117.7,40.6v-1.9c0-1.3-0.4-2.1-1.2-2.2H111v6.4h5.5
		C117.3,42.7,117.7,41.9,117.7,40.6L117.7,40.6z M112.1,37.4h4c0.4,0,0.5,0.4,0.5,1.2l0,0v1.9c0,0.8-0.2,1.2-0.5,1.2l0,0h-4V37.4z"
		/>
	<path fill-rule="evenodd" clip-rule="evenodd" fill="#2E3192" d="M123.4,36.4h-1.5l-2.9,6.4h1.3l0.6-1.3h3.4l0.6,1.3h1.3
		L123.4,36.4L123.4,36.4z M122.6,37.7l1.3,2.8h-2.5L122.6,37.7z"/>
	<path fill-rule="evenodd" clip-rule="evenodd" fill="#2E3192" d="M133.8,41L133.8,41c0-0.6-0.1-1.1-0.3-1.4l0,0
		c0.2-0.3,0.3-0.7,0.3-1.3v0c0-1.2-0.4-1.8-1.2-1.9h-5.1v6.4h1.1v-2.7h3.8c0.3,0,0.4,0.3,0.4,0.8l0,0v1.9h1L133.8,41L133.8,41z
		 M128.6,37.4h3.8c0.3,0,0.4,0.3,0.4,0.8l0,0c0,0.5-0.1,0.8-0.4,0.8l0,0h-3.8V37.4z"/>
	<path fill-rule="evenodd" clip-rule="evenodd" fill="#2E3192" d="M145.3,36.4h-4.8c-0.8,0.2-1.2,0.9-1.2,2.2l0,0v1.9
		c0,1.3,0.4,2.1,1.2,2.2l0,0h4.8c0.7-0.1,1.1-0.9,1.2-2.1h-1.1c0,0.7-0.2,1.1-0.5,1.1l0,0H141c-0.4,0-0.5-0.4-0.5-1.2l0,0v-1.9
		c0-0.8,0.2-1.2,0.5-1.2l0,0h3.9c0.3,0,0.5,0.4,0.5,1.1l0,0h1.1C146.4,37.3,146,36.5,145.3,36.4z"/>
	<polygon fill-rule="evenodd" clip-rule="evenodd" fill="#2E3192" points="164.3,42.8 164.3,36.4 162.6,36.4 160.3,41.5 158,36.4 
		156.3,36.4 156.3,42.8 157.4,42.8 157.4,37.9 159.6,42.8 161,42.8 163.2,37.9 163.2,42.8 	"/>
	<polygon fill-rule="evenodd" clip-rule="evenodd" fill="#2E3192" points="175.3,36.4 173.9,36.4 171.6,38.9 169.3,36.4 168,36.4 
		171,39.7 171.1,39.8 171.1,42.8 172.2,42.8 172.2,39.8 172.3,39.7 	"/>
	<polygon fill-rule="evenodd" clip-rule="evenodd" fill="#2E3192" points="183.8,36.4 182.4,36.4 180.1,38.9 177.8,36.4 176.4,36.4 
		179.5,39.7 179.6,39.8 179.6,42.8 180.6,42.8 180.6,39.8 180.7,39.7 	"/>
	<polygon fill-rule="evenodd" clip-rule="evenodd" fill="#2E3192" points="199.8,37.4 199.8,36.4 193.5,36.4 193.5,37.4 196.1,37.4 
		196.1,42.8 197.2,42.8 197.2,37.4 	"/>
	<rect x="201.1" y="36.4" fill-rule="evenodd" clip-rule="evenodd" fill="#2E3192" width="1.1" height="1"/>
	<rect x="201.1" y="38.5" fill-rule="evenodd" clip-rule="evenodd" fill="#2E3192" width="1.1" height="4.3"/>
	<rect x="165.6" y="36.4" fill-rule="evenodd" clip-rule="evenodd" fill="#2E3192" width="1.1" height="1"/>
	<rect x="165.6" y="38.5" fill-rule="evenodd" clip-rule="evenodd" fill="#2E3192" width="1.1" height="4.3"/>
	<path fill-rule="evenodd" clip-rule="evenodd" fill="#ED1C24" d="M47,11.6h19.3v16.7c0,1.1-0.9,1.9-1.9,1.9l0,0h-1.6
		c-0.5,0-1-0.4-1-1l0,0V16.1H49.1c-0.3,0-0.5,0.2-0.5,0.5l0,0v8.7c0,0.3,0.2,0.5,0.5,0.5l0,0h9.4c0.5,0,1,0.4,1,1l0,0v2.6
		c0,0.5-0.4,1-1,1l0,0H47c-1.6,0-2.9-1.3-2.9-2.9V14.5C44.2,12.9,45.5,11.6,47,11.6z"/>
	<path fill-rule="evenodd" clip-rule="evenodd" fill="#ED1C24" d="M69.1,30.2L69.1,30.2h20.7c0.5,0,1-0.4,1-1l0,0v-2.6
		c0-0.5-0.4-1-1-1l0,0H78.4l12.3-13.3c0.1-0.1,0.2-0.3,0.1-0.5l0,0c-0.1-0.2-0.2-0.3-0.4-0.3l0,0H69.6c-0.5,0-1,0.4-1,1l0,0v2.6
		c0,0.5,0.4,1,1,1l0,0H81L68.8,29.4c-0.1,0.1-0.2,0.3-0.1,0.5l0,0C68.7,30.1,68.9,30.2,69.1,30.2z"/>
	<path fill-rule="evenodd" clip-rule="evenodd" fill="#ED1C24" d="M96,30.2h16.4c4.6,0,2.9-12.1,2.9-15.7c0-1.6-1.3-2.9-2.9-2.9l0,0
		H96c-1.6,0-2.9,1.3-2.9,2.9l0,0v0.7c0,0.5,0.4,1,1,1l0,0h16.2c0.3,0,0.5,0.2,0.5,0.5l0,0v2.1H94c-0.5,0-1,0.4-1,1l0,0v7.7
		C93.1,29,94.4,30.2,96,30.2L96,30.2z M97.6,25.3v-1.8c0-0.2,0.1-0.3,0.3-0.3l0,0h12.9v2.1c0,0.3-0.2,0.5-0.5,0.5l0,0H98.1
		C97.8,25.7,97.6,25.5,97.6,25.3L97.6,25.3z"/>
	<path fill-rule="evenodd" clip-rule="evenodd" fill="#ED1C24" d="M118.5,30.2h2.6c0.5,0,1-0.4,1-1l0,0V16.1h16.7c0.5,0,1-0.4,1-1
		v-2.6c0-0.5-0.4-1-1-1l0,0h-20.2c-0.5,0-1,0.4-1,1l0,0v16.7C117.5,29.8,118,30.2,118.5,30.2z"/>
	<path fill-rule="evenodd" clip-rule="evenodd" fill="#ED1C24" d="M176.8,11.7h-2.6c-0.5,0-1,0.4-1,1v16.7c0,0.5,0.4,1,1,1l0,0h2.6
		c0.5,0,1-0.4,1-1l0,0V12.6C177.7,12.1,177.3,11.7,176.8,11.7z"/>
	<path fill-rule="evenodd" clip-rule="evenodd" fill="#ED1C24" d="M143,30.2h2.6c0.5,0,1-0.4,1-1v-9.6c0-0.5-0.4-1-1-1l0,0H143
		c-0.5,0-1,0.4-1,1l0,0v9.6C142,29.8,142.4,30.2,143,30.2z"/>
	<path fill-rule="evenodd" clip-rule="evenodd" fill="#ED1C24" d="M143,16.1h2.6c0.5,0,1-0.4,1-1v-2.6c0-0.5-0.4-1-1-1l0,0H143
		c-0.5,0-1,0.4-1,1l0,0v2.6C142,15.7,142.4,16.1,143,16.1z"/>
	<path fill-rule="evenodd" clip-rule="evenodd" fill="#ED1C24" d="M158.6,34.7h2.6c0.5,0,1-0.4,1-1l0,0v-3.5h6
		c1.6,0,2.9-1.3,2.9-2.9v-5.8c0-1.6-1.3-2.9-2.9-2.9l0,0h-14.3c-0.3,0-0.5-0.2-0.5-0.5l0,0v-1.6c0-0.3,0.2-0.5,0.5-0.5l0,0H170
		c0.5,0,1-0.4,1-1v-2.6c0-0.5-0.4-1-1-1l0,0h-18.3c-1.6,0-2.9,1.3-2.9,2.9l0,0v5.8c0,1.6,1.3,2.9,2.9,2.9l0,0H166
		c0.3,0,0.5,0.2,0.5,0.5l0,0v1.6c0,0.3-0.2,0.5-0.5,0.5l0,0h-16.2c-0.5,0-1,0.4-1,1l0,0v2.6c0,0.5,0.4,1,1,1l0,0h7.9v3.5
		C157.6,34.3,158,34.7,158.6,34.7z"/>
	<path fill-rule="evenodd" clip-rule="evenodd" fill="#ED1C24" d="M198.7,34.7h2.6c0.5,0,1-0.4,1-1l0,0V12.6c0-0.5-0.4-1-1-1l0,0
		h-18.3c-1.6,0-2.9,1.3-2.9,2.9v12.9c0,1.6,1.3,2.9,2.9,2.9l0,0h14.8v3.5C197.7,34.3,198.1,34.7,198.7,34.7L198.7,34.7z M184.5,24.8
		v-7.7c0-0.5,0.4-1,1-1l0,0h11.7c0.3,0,0.5,0.2,0.5,0.5l0,0v9.1h-12.2C185,25.7,184.5,25.3,184.5,24.8L184.5,24.8z"/>
	<path fill-rule="evenodd" clip-rule="evenodd" fill="#2E3192" d="M21.4,42.7c-1.6,0.3-3.2,0.5-4.8,0.5l0,0c-1.6,0-3.2-0.2-4.8-0.5
		l0,0c-1.1-0.2-2.1,0.4-2.4,1.5l0,0c-0.2,1.1,0.4,2.1,1.5,2.4l0,0c1.8,0.4,3.7,0.6,5.6,0.6c1.9,0,3.8-0.2,5.6-0.6l0,0
		c1.1-0.2,1.7-1.3,1.5-2.4l0,0c-0.2-0.9-1-1.6-1.9-1.6l0,0C21.7,42.6,21.6,42.7,21.4,42.7L21.4,42.7z"/>
	<path fill-rule="evenodd" clip-rule="evenodd" fill="#2E3192" d="M5.5,8.4c-3,2.7-5,6.4-5.5,10.4l0,0c-0.1,1.1,3.8,1.5,3.9,0.5l0,0
		c0.8-6.2,6-10.9,12.2-11.1l0,0L19,4.3c-0.8-0.1-1.6-0.2-2.4-0.2l0,0C12.6,4.2,8.6,5.7,5.5,8.4L5.5,8.4z"/>
	<path fill-rule="evenodd" clip-rule="evenodd" fill="#2E3192" d="M21.3,9c4.2,1.7,7.5,5.5,8.1,10.3l0,0c0.1,1,4.1,0.6,3.9-0.5l0,0
		c-0.5-4-2.5-7.7-5.5-10.4l0,0c-1.4-1.2-3-2.2-4.7-2.9L21.3,9z"/>
	<path fill-rule="evenodd" clip-rule="evenodd" fill="#2E3192" d="M16.6,51.8L16.6,51.8h0.1c1.5,0,3-0.1,4.4-0.3l0,0
		c1.1-0.2,1.8-1.2,1.7-2.2l0,0c-0.1-1-1-1.7-2-1.7l0,0c-0.1,0-0.2,0-0.3,0l0,0c-1.3,0.2-2.6,0.3-3.9,0.3l0,0c-1.3,0-2.6-0.1-3.9-0.3
		l0,0c-1.1-0.2-2.1,0.6-2.2,1.7l0,0c-0.2,1.1,0.6,2.1,1.7,2.2l0,0C13.6,51.7,15.1,51.8,16.6,51.8z"/>
	<polygon fill-rule="evenodd" clip-rule="evenodd" fill="#ED1C24" points="6.4,23.4 18.5,23.4 9.1,41.9 26.9,18.5 14.9,18.5 24.2,0 
			"/>
	<path fill-rule="evenodd" clip-rule="evenodd" fill="#2E3192" d="M0,23.2c0.5,4,2.5,7.7,5.5,10.4l0,0c1.4,1.2,3,2.2,4.7,2.9l0,0
		l1.8-3.5c-4.2-1.7-7.4-5.5-8.1-10.3l0,0c-0.1-0.4-0.7-0.6-1.4-0.6C1.4,22.1-0.1,22.5,0,23.2L0,23.2z"/>
	<path fill-rule="evenodd" clip-rule="evenodd" fill="#2E3192" d="M16.6,37.8L16.6,37.8c4.1,0,8.1-1.5,11.1-4.2l0,0
		c3-2.7,5-6.4,5.5-10.4l0,0c0.1-0.7-1.4-1.1-2.5-1.1l0,0c-0.7,0-1.3,0.2-1.4,0.6l0,0c-0.8,6.2-6,10.9-12.2,11.1l0,0l-2.9,3.8
		C15,37.7,15.8,37.8,16.6,37.8z"/>
	<path fill-rule="evenodd" clip-rule="evenodd" fill="#2E3192" d="M21.3,37.9c-1.5,0.4-3.1,0.6-4.7,0.6l0,0c-1,0-1.9-0.1-2.9-0.2
		l0,0l-2.6,3.5c1.8,0.5,3.6,0.7,5.5,0.7c1.9,0,3.9-0.3,5.7-0.8l0,0c1.1-0.3,1.7-1.4,1.4-2.4l0,0c-0.2-0.9-1-1.5-1.9-1.5l0,0
		C21.7,37.8,21.5,37.8,21.3,37.9L21.3,37.9z"/>
</g>
</svg>
