<?xml version="1.0" encoding="utf-8"?>
<!-- Generator: Adobe Illustrator 18.0.0, SVG Export Plug-In . SVG Version: 6.00 Build 0)  -->
<!DOCTYPE svg PUBLIC "-//W3C//DTD SVG 1.1//EN" "http://www.w3.org/Graphics/SVG/1.1/DTD/svg11.dtd">
<svg version="1.1" id="Layer_1" xmlns="http://www.w3.org/2000/svg" xmlns:xlink="http://www.w3.org/1999/xlink" x="0px" y="0px"
	 viewBox="0 0 120.9 34.7" enable-background="new 0 0 120.9 34.7" xml:space="preserve">
<g>
	<path fill="#010101" d="M120.9,31.2c0,1.9-1.6,3.5-3.5,3.5H3.5c-1.9,0-3.5-1.6-3.5-3.5V3.5C0,1.6,1.6,0,3.5,0h114
		c1.9,0,3.5,1.6,3.5,3.5L120.9,31.2L120.9,31.2z"/>
	<g>
		<g>
			<path fill="#FFFFFF" stroke="#FFFFFF" stroke-width="0.2" stroke-miterlimit="10" d="M41.9,8.1c0,0.8-0.2,1.4-0.7,1.8
				c-0.5,0.5-1.2,0.8-2,0.8c-0.8,0-1.5-0.3-2-0.8c-0.6-0.5-0.8-1.2-0.8-2c0-0.8,0.3-1.5,0.8-2c0.5-0.5,1.2-0.8,2-0.8
				c0.4,0,0.8,0.1,1.1,0.2c0.4,0.2,0.6,0.4,0.9,0.6l-0.5,0.5c-0.4-0.4-0.9-0.6-1.5-0.6c-0.6,0-1.1,0.2-1.5,0.6
				c-0.4,0.4-0.6,0.9-0.6,1.6s0.2,1.2,0.6,1.6c0.4,0.4,0.9,0.6,1.5,0.6c0.6,0,1.1-0.2,1.5-0.6c0.3-0.3,0.4-0.6,0.5-1.1h-2V7.7h2.6
				C41.9,7.8,41.9,7.9,41.9,8.1z"/>
			<path fill="#FFFFFF" stroke="#FFFFFF" stroke-width="0.2" stroke-miterlimit="10" d="M46.1,5.8h-2.5v1.7h2.2v0.7h-2.2v1.7h2.5
				v0.7h-3.2V5.1h3.2V5.8z"/>
			<path fill="#FFFFFF" stroke="#FFFFFF" stroke-width="0.2" stroke-miterlimit="10" d="M49,10.6h-0.7V5.8h-1.5V5.1h3.7v0.7H49V10.6
				z"/>
			<path fill="#FFFFFF" stroke="#FFFFFF" stroke-width="0.2" stroke-miterlimit="10" d="M53.2,10.6V5.1h0.7v5.4H53.2z"/>
			<path fill="#FFFFFF" stroke="#FFFFFF" stroke-width="0.2" stroke-miterlimit="10" d="M57,10.6h-0.7V5.8h-1.5V5.1h3.7v0.7H57V10.6
				z"/>
			<path fill="#FFFFFF" stroke="#FFFFFF" stroke-width="0.2" stroke-miterlimit="10" d="M65.7,9.9c-0.5,0.6-1.2,0.8-2,0.8
				c-0.8,0-1.5-0.3-2-0.8c-0.5-0.6-0.8-1.2-0.8-2s0.3-1.5,0.8-2c0.5-0.6,1.2-0.8,2-0.8c0.8,0,1.5,0.3,2,0.8c0.5,0.6,0.8,1.2,0.8,2
				C66.5,8.6,66.2,9.3,65.7,9.9z M62.2,9.4c0.4,0.4,0.9,0.6,1.5,0.6c0.6,0,1.1-0.2,1.5-0.6c0.4-0.4,0.6-0.9,0.6-1.6
				s-0.2-1.2-0.6-1.6c-0.4-0.4-0.9-0.6-1.5-0.6c-0.6,0-1.1,0.2-1.5,0.6c-0.4,0.4-0.6,0.9-0.6,1.6S61.8,9,62.2,9.4z"/>
			<path fill="#FFFFFF" stroke="#FFFFFF" stroke-width="0.2" stroke-miterlimit="10" d="M67.4,10.6V5.1h0.9l2.6,4.2h0l0-1.1V5.1h0.7
				v5.4h-0.7l-2.8-4.4h0l0,1.1v3.4H67.4z"/>
		</g>
		<path fill="#FFFFFF" d="M60.7,18.5c-2.1,0-3.9,1.6-3.9,3.9c0,2.2,1.7,3.9,3.9,3.9c2.1,0,3.9-1.6,3.9-3.9
			C64.6,20.1,62.8,18.5,60.7,18.5z M60.7,24.7c-1.2,0-2.2-1-2.2-2.3c0-1.4,1-2.3,2.2-2.3c1.2,0,2.2,1,2.2,2.3
			C62.9,23.8,61.9,24.7,60.7,24.7z M52.2,18.5c-2.1,0-3.9,1.6-3.9,3.9c0,2.2,1.7,3.9,3.9,3.9c2.1,0,3.9-1.6,3.9-3.9
			C56.1,20.1,54.4,18.5,52.2,18.5z M52.2,24.7c-1.2,0-2.2-1-2.2-2.3c0-1.4,1-2.3,2.2-2.3c1.2,0,2.2,1,2.2,2.3
			C54.4,23.8,53.4,24.7,52.2,24.7z M42.2,19.7v1.6h3.9c-0.1,0.9-0.4,1.6-0.9,2.1c-0.6,0.6-1.5,1.2-3,1.2c-2.4,0-4.3-1.9-4.3-4.4
			s1.9-4.4,4.3-4.4c1.3,0,2.3,0.5,3,1.2l1.2-1.2c-1-0.9-2.3-1.7-4.1-1.7c-3.3,0-6.1,2.7-6.1,6c0,3.3,2.8,6,6.1,6
			c1.8,0,3.1-0.6,4.2-1.7c1.1-1.1,1.4-2.6,1.4-3.8c0-0.4,0-0.7-0.1-1H42.2z M83.3,21C83,20.1,82,18.5,80,18.5c-2,0-3.6,1.6-3.6,3.9
			c0,2.2,1.6,3.9,3.8,3.9c1.8,0,2.8-1.1,3.2-1.7l-1.3-0.9c-0.4,0.6-1,1.1-1.9,1.1c-0.9,0-1.5-0.4-1.9-1.2l5.2-2.1L83.3,21z
			 M78.1,22.3c0-1.5,1.2-2.3,2-2.3c0.7,0,1.2,0.3,1.4,0.8L78.1,22.3z M73.9,26h1.7V14.7h-1.7V26z M71.1,19.4L71.1,19.4
			c-0.4-0.5-1.2-0.9-2.1-0.9c-1.9,0-3.7,1.7-3.7,3.9c0,2.2,1.8,3.8,3.7,3.8c0.9,0,1.7-0.4,2-0.9h0.1v0.6c0,1.5-0.8,2.3-2.1,2.3
			c-1,0-1.7-0.7-1.9-1.4l-1.5,0.6c0.4,1,1.6,2.3,3.4,2.3c2,0,3.7-1.2,3.7-4v-6.9h-1.6V19.4z M69.1,24.7c-1.2,0-2.2-1-2.2-2.3
			c0-1.4,1-2.4,2.2-2.4c1.2,0,2.1,1,2.1,2.4C71.2,23.7,70.3,24.7,69.1,24.7z M91.3,14.7h-4.1V26h1.7v-4.3h2.4c1.9,0,3.7-1.4,3.7-3.5
			S93.1,14.7,91.3,14.7z M91.3,20.1h-2.4v-3.9h2.4c1.3,0,2,1,2,1.9C93.3,19.1,92.6,20.1,91.3,20.1z M101.8,18.5
			c-1.2,0-2.5,0.5-3,1.7l1.5,0.6c0.3-0.6,0.9-0.8,1.5-0.8c0.9,0,1.8,0.5,1.8,1.5v0.1c-0.3-0.2-1-0.4-1.8-0.4c-1.6,0-3.3,0.9-3.3,2.6
			c0,1.5,1.3,2.5,2.8,2.5c1.1,0,1.8-0.5,2.2-1.1h0.1V26h1.6v-4.4C105.2,19.6,103.7,18.5,101.8,18.5z M101.6,24.7
			c-0.6,0-1.3-0.3-1.3-1c0-0.9,1-1.2,1.8-1.2c0.7,0,1.1,0.2,1.5,0.4C103.5,24,102.6,24.7,101.6,24.7z M111.2,18.7l-1.9,4.9h-0.1
			l-2-4.9h-1.8l3,6.9l-1.7,3.8h1.8l4.7-10.7H111.2z M95.9,26h1.7V14.7h-1.7V26z"/>
		<g>
			
				<linearGradient id="SVGID_1_" gradientUnits="userSpaceOnUse" x1="18.5984" y1="956.5915" x2="3.3544" y2="941.3475" gradientTransform="matrix(1 0 0 -1 0 963.261)">
				<stop  offset="0" style="stop-color:#4998D3"/>
				<stop  offset="6.574450e-003" style="stop-color:#4A99D3"/>
				<stop  offset="0.2601" style="stop-color:#42BAEB"/>
				<stop  offset="0.5122" style="stop-color:#41C7F2"/>
				<stop  offset="0.7604" style="stop-color:#56C9E9"/>
				<stop  offset="1" style="stop-color:#5BCAE8"/>
			</linearGradient>
			<path fill="url(#SVGID_1_)" d="M8.3,5.6C8,5.9,7.9,6.3,7.9,6.9V27c0,0.6,0.2,1,0.4,1.3l0.1,0.1l11.3-11.3v-0.1v-0.1L8.3,5.6
				L8.3,5.6z"/>
			
				<linearGradient id="SVGID_2_" gradientUnits="userSpaceOnUse" x1="29.5298" y1="946.3348" x2="7.551" y2="946.3348" gradientTransform="matrix(1 0 0 -1 0 963.261)">
				<stop  offset="0" style="stop-color:#FEE000"/>
				<stop  offset="0.4087" style="stop-color:#FEBD11"/>
				<stop  offset="0.7754" style="stop-color:#FAA51A"/>
				<stop  offset="1" style="stop-color:#F99B1C"/>
			</linearGradient>
			<path fill="url(#SVGID_2_)" d="M23.3,20.8l-3.8-3.8v-0.1v-0.1l3.8-3.8l0.1,0l4.4,2.5c1.3,0.7,1.3,1.9,0,2.6L23.3,20.8L23.3,20.8z
				"/>
			
				<linearGradient id="SVGID_3_" gradientUnits="userSpaceOnUse" x1="21.3481" y1="944.2505" x2="0.676" y2="923.5786" gradientTransform="matrix(1 0 0 -1 0 963.261)">
				<stop  offset="0" style="stop-color:#EF4149"/>
				<stop  offset="1" style="stop-color:#C31E63"/>
			</linearGradient>
			<path fill="url(#SVGID_3_)" d="M23.4,20.8l-3.8-3.8L8.3,28.2c0.4,0.4,1.1,0.5,1.9,0.1L23.4,20.8"/>
			
				<linearGradient id="SVGID_4_" gradientUnits="userSpaceOnUse" x1="5.4254" y1="964.3428" x2="14.6563" y2="955.1118" gradientTransform="matrix(1 0 0 -1 0 963.261)">
				<stop  offset="0" style="stop-color:#32A072"/>
				<stop  offset="6.850000e-002" style="stop-color:#2CA772"/>
				<stop  offset="0.4762" style="stop-color:#4BBA71"/>
				<stop  offset="0.8009" style="stop-color:#5EBD6B"/>
				<stop  offset="1" style="stop-color:#66BE69"/>
			</linearGradient>
			<path fill="url(#SVGID_4_)" d="M23.4,13.1L10.2,5.5C9.4,5.1,8.7,5.2,8.3,5.6l11.3,11.3L23.4,13.1z"/>
			<g>
				<path opacity="0.2" fill="#010101" enable-background="new    " d="M23.3,20.7l-13.2,7.5c-0.7,0.4-1.4,0.4-1.8,0l0,0l-0.1,0.1
					l0,0l0.1,0.1l0,0c0.4,0.4,1.1,0.4,1.8,0L23.3,20.7L23.3,20.7z"/>
				<path opacity="0.12" fill="#010101" enable-background="new    " d="M8.3,28.1c-0.3-0.3-0.4-0.7-0.4-1.3V27c0,0.6,0.2,1,0.4,1.3
					V28.1L8.3,28.1z"/>
			</g>
			<path opacity="0.12" fill="#010101" enable-background="new    " d="M27.9,18.1l-4.5,2.6l0.1,0.1l4.4-2.5c0.6-0.4,1-0.8,1-1.3
				l0,0C28.8,17.4,28.5,17.8,27.9,18.1z"/>
			<path opacity="0.25" fill="#FFFFFF" enable-background="new    " d="M10.2,5.7l17.7,10.1c0.6,0.3,0.9,0.7,1,1.2l0,0
				c0-0.5-0.3-1-1-1.3L10.2,5.5C8.9,4.8,7.9,5.4,7.9,6.9V7C7.9,5.6,8.9,5,10.2,5.7z"/>
		</g>
	</g>
</g>
</svg>
